<svg width="24" height="24" viewBox="0 0 24 24" fill="none" xmlns="http://www.w3.org/2000/svg">
<path d="M16.29 8.71L18.59 11L9.00001 11C8.7348 11 8.48044 11.1054 8.29291 11.2929C8.10537 11.4804 8.00001 11.7348 8.00001 12C8.00001 12.2652 8.10537 12.5196 8.29291 12.7071C8.48044 12.8946 8.7348 13 9.00001 13L18.59 13L16.29 15.29C16.1963 15.383 16.1219 15.4936 16.0711 15.6154C16.0204 15.7373 15.9942 15.868 15.9942 16C15.9942 16.132 16.0204 16.2627 16.0711 16.3846C16.1219 16.5064 16.1963 16.617 16.29 16.71C16.383 16.8037 16.4936 16.8781 16.6154 16.9289C16.7373 16.9797 16.868 17.0058 17 17.0058C17.132 17.0058 17.2627 16.9797 17.3846 16.9289C17.5064 16.8781 17.617 16.8037 17.71 16.71L21.71 12.71C21.8011 12.6149 21.8724 12.5028 21.92 12.38C22.02 12.1365 22.02 11.8635 21.92 11.62C21.8724 11.4972 21.8011 11.3851 21.71 11.29L17.71 7.29C17.6168 7.19676 17.5061 7.1228 17.3843 7.07234C17.2624 7.02188 17.1319 6.99591 17 6.99591C16.8682 6.99591 16.7376 7.02188 16.6158 7.07234C16.4939 7.1228 16.3833 7.19676 16.29 7.29C16.1968 7.38324 16.1228 7.49393 16.0724 7.61575C16.0219 7.73757 15.9959 7.86814 15.9959 8C15.9959 8.13186 16.0219 8.26243 16.0724 8.38425C16.1228 8.50607 16.1968 8.61676 16.29 8.71ZM12 21C12 20.7348 11.8947 20.4804 11.7071 20.2929C11.5196 20.1054 11.2652 20 11 20H5.00001C4.73479 20 4.48044 19.8946 4.2929 19.7071C4.10537 19.5196 4.00001 19.2652 4.00001 19L4.00001 5C4.00001 4.73478 4.10537 4.48043 4.2929 4.29289C4.48044 4.10536 4.73479 4 5.00001 4L11 4C11.2652 4 11.5196 3.89464 11.7071 3.70711C11.8947 3.51957 12 3.26522 12 3C12 2.73478 11.8947 2.48043 11.7071 2.29289C11.5196 2.10536 11.2652 2 11 2L5.00001 2C4.20436 2 3.4413 2.31607 2.87869 2.87868C2.31608 3.44129 2.00001 4.20435 2.00001 5L2.00001 19C2.00001 19.7956 2.31608 20.5587 2.87869 21.1213C3.4413 21.6839 4.20436 22 5.00001 22H11C11.2652 22 11.5196 21.8946 11.7071 21.7071C11.8947 21.5196 12 21.2652 12 21Z" fill="black"/>
</svg>
