<svg width="15" height="15" viewBox="0 0 24 24" fill="none" xmlns="http://www.w3.org/2000/svg">
<path d="M8.18 3.99996H3C2.73478 3.99996 2.48043 4.10532 2.29289 4.29286C2.10536 4.48039 2 4.73475 2 4.99996C2 5.26518 2.10536 5.51954 2.29289 5.70707C2.48043 5.89461 2.73478 5.99996 3 5.99996H8.18C8.3902 6.57912 8.77363 7.0795 9.27816 7.43312C9.7827 7.78674 10.3839 7.97644 11 7.97644C11.6161 7.97644 12.2173 7.78674 12.7218 7.43312C13.2264 7.0795 13.6098 6.57912 13.82 5.99996L21 5.99996C21.2652 5.99996 21.5196 5.89461 21.7071 5.70707C21.8946 5.51954 22 5.26518 22 4.99996C22 4.73475 21.8946 4.48039 21.7071 4.29286C21.5196 4.10532 21.2652 3.99996 21 3.99996H13.82C13.6098 3.42081 13.2264 2.92042 12.7218 2.5668C12.2173 2.21319 11.6161 2.02349 11 2.02349C10.3839 2.02349 9.7827 2.21319 9.27816 2.5668C8.77363 2.92042 8.3902 3.42081 8.18 3.99996ZM12 4.99996C12 5.19774 11.9414 5.39108 11.8315 5.55553C11.7216 5.71998 11.5654 5.84816 11.3827 5.92384C11.2 5.99953 10.9989 6.01933 10.8049 5.98075C10.6109 5.94216 10.4327 5.84692 10.2929 5.70707C10.153 5.56722 10.0578 5.38904 10.0192 5.19506C9.98063 5.00107 10.0004 4.80001 10.0761 4.61728C10.1518 4.43456 10.28 4.27838 10.4444 4.16849C10.6089 4.05861 10.8022 3.99996 11 3.99996C11.2652 3.99996 11.5196 4.10532 11.7071 4.29286C11.8946 4.48039 12 4.73475 12 4.99996ZM14.18 11H3C2.73478 11 2.48043 11.1053 2.29289 11.2929C2.10536 11.4804 2 11.7347 2 12C2 12.2652 2.10536 12.5195 2.29289 12.7071C2.48043 12.8946 2.73478 13 3 13H14.18C14.3902 13.5791 14.7736 14.0795 15.2782 14.4331C15.7827 14.7867 16.3839 14.9764 17 14.9764C17.6161 14.9764 18.2173 14.7867 18.7218 14.4331C19.2264 14.0795 19.6098 13.5791 19.82 13H21C21.2652 13 21.5196 12.8946 21.7071 12.7071C21.8946 12.5195 22 12.2652 22 12C22 11.7347 21.8946 11.4804 21.7071 11.2929C21.5196 11.1053 21.2652 11 21 11H19.82C19.6098 10.4208 19.2264 9.92042 18.7218 9.56681C18.2173 9.21319 17.6161 9.02349 17 9.02349C16.3839 9.02349 15.7827 9.21319 15.2782 9.56681C14.7736 9.92042 14.3902 10.4208 14.18 11ZM18 12C18 12.1977 17.9414 12.3911 17.8315 12.5555C17.7216 12.72 17.5654 12.8482 17.3827 12.9238C17.2 12.9995 16.9989 13.0193 16.8049 12.9807C16.6109 12.9422 16.4327 12.8469 16.2929 12.7071C16.153 12.5672 16.0578 12.389 16.0192 12.1951C15.9806 12.0011 16.0004 11.8 16.0761 11.6173C16.1518 11.4346 16.28 11.2784 16.4444 11.1685C16.6089 11.0586 16.8022 11 17 11C17.2652 11 17.5196 11.1053 17.7071 11.2929C17.8946 11.4804 18 11.7347 18 12ZM6.18 18H3C2.73478 18 2.48043 18.1053 2.29289 18.2929C2.10536 18.4804 2 18.7347 2 19C2 19.2652 2.10536 19.5195 2.29289 19.7071C2.48043 19.8946 2.73478 20 3 20H6.18C6.3902 20.5791 6.77363 21.0795 7.27817 21.4331C7.7827 21.7867 8.38388 21.9764 9 21.9764C9.61612 21.9764 10.2173 21.7867 10.7218 21.4331C11.2264 21.0795 11.6098 20.5791 11.82 20H21C21.2652 20 21.5196 19.8946 21.7071 19.7071C21.8946 19.5195 22 19.2652 22 19C22 18.7347 21.8946 18.4804 21.7071 18.2929C21.5196 18.1053 21.2652 18 21 18H11.82C11.6098 17.4208 11.2264 16.9204 10.7218 16.5668C10.2173 16.2132 9.61612 16.0235 9 16.0235C8.38388 16.0235 7.7827 16.2132 7.27817 16.5668C6.77363 16.9204 6.3902 17.4208 6.18 18ZM10 19C10 19.1977 9.94135 19.3911 9.83147 19.5555C9.72159 19.72 9.56541 19.8482 9.38268 19.9238C9.19996 19.9995 8.99889 20.0193 8.80491 19.9807C8.61093 19.9422 8.43275 19.8469 8.29289 19.7071C8.15304 19.5672 8.0578 19.389 8.01921 19.1951C7.98063 19.0011 8.00043 18.8 8.07612 18.6173C8.15181 18.4346 8.27998 18.2784 8.44443 18.1685C8.60888 18.0586 8.80222 18 9 18C9.26522 18 9.51957 18.1053 9.70711 18.2929C9.89464 18.4804 10 18.7347 10 19Z" fill="black"/>
</svg>
